<svg xmlns="http://www.w3.org/2000/svg" xmlns:xlink="http://www.w3.org/1999/xlink" width="245" height="240" viewBox="0 0 245 240">
  <defs>
    <clipPath id="clip-edit">
      <rect width="245" height="240"/>
    </clipPath>
  </defs>
  <g id="edit" clip-path="url(#clip-edit)">
    <path id="Path_48" data-name="Path 48" d="M269.973,239.933a16.4,16.4,0,0,1-16.6,16.352h-131.3a16.406,16.406,0,0,1-16.595-16.352V108.143a16.563,16.563,0,0,1,16.595-16.352h67.116l21.233-21.232-88.349,0C101.086,70.557,84,87.4,84,108.143v131.79a37.914,37.914,0,0,0,38.073,37.829H253.621a37.914,37.914,0,0,0,38.072-37.829V151.34l-21.232,21.232v67.36Z" transform="translate(-77.317 -41.835)"/>
    <path id="Path_49" data-name="Path 49" d="M384.241,48.656l-29.775-29.53A17.246,17.246,0,0,0,342.507,14a16.59,16.59,0,0,0-11.959,4.881L220.722,128.706a16.878,16.878,0,0,0-4.881,10.982l-1.953,31.482a17.443,17.443,0,0,0,4.881,13.178,17,17,0,0,0,11.959,4.881h.975l31.728-1.949a16.879,16.879,0,0,0,10.982-4.881L384,72.818a17,17,0,0,0,4.881-11.959,16,16,0,0,0-4.638-12.2ZM314.2,65.5,337.871,89.17l-54.913,54.669-23.673-23.673ZM260.5,166.291l-25.138,1.464,1.464-25.138,7.077-7.077,23.673,23.673Zm92.254-92.5L329.329,50.366l13.178-13.178,23.673,23.673Z" transform="translate(-150.584 -9.927)"/>
  </g>
</svg>
